<svg width="60" height="54" viewBox="0 0 60 54" fill="none" xmlns="http://www.w3.org/2000/svg">
<path fill-rule="evenodd" clip-rule="evenodd" d="M19.1018 1.03295C16.8728 1.51329 14.8413 3.22992 14.0121 5.33373C13.8754 5.68062 13.3036 8.2217 12.7412 10.9807C11.5172 16.9879 11.425 17.1917 9.93249 17.1917C8.17557 17.1917 7.84929 16.246 8.50603 13.0575C8.73915 11.9259 8.92995 10.9457 8.92995 10.8793C8.9298 10.7112 7.97608 10.8635 6.87124 11.2082C4.11472 12.0685 1.7984 14.5849 1.12198 17.4543C0.806092 18.7942 0.853677 36.9263 1.17654 38.1882C1.9548 41.2316 4.4131 43.651 7.52643 44.4379C8.93011 44.7926 36.9831 44.8215 36.8467 44.468C35.3362 40.5556 37.038 35.2962 40.7268 32.4761C43.6396 30.2492 48.4525 29.727 51.5581 31.3007C51.8849 31.4663 52.1813 31.6017 52.2168 31.6017C52.3923 31.6019 52.2752 18.2096 52.093 17.4338C51.337 14.2155 48.6089 11.6072 45.2909 10.9305C44.1497 10.6978 44.1959 10.5357 44.7015 12.9988C45.3694 16.2521 45.0533 17.1917 43.291 17.1917C41.7896 17.1917 41.707 17.0094 40.4732 10.9723C39.9069 8.20108 39.3343 5.65675 39.2008 5.31839C38.36 3.18481 36.357 1.515 34.0533 1.02706C32.8525 0.772704 20.2862 0.777664 19.1018 1.03295ZM33.6636 5.08155C34.3503 5.33838 35.0462 5.96567 35.3798 6.62845C35.5404 6.94744 36.2971 10.2827 36.2971 10.6715C36.2971 10.7277 31.9377 10.7738 26.6096 10.7738C21.2814 10.7738 16.9221 10.7277 16.9221 10.6715C16.9221 10.2302 17.6885 6.93271 17.8755 6.57017C18.2103 5.92041 18.8422 5.35466 19.5354 5.08403C20.4737 4.71761 32.6853 4.71544 33.6636 5.08155ZM12.0699 19.1853C12.7924 19.559 12.966 19.9388 13.8772 23.1375C15.0945 27.4107 15.6591 28.3387 17.4931 29.0788L18.1935 29.3615H26.6096H35.0256L35.726 29.0788C37.5606 28.3384 38.1245 27.4112 39.3436 23.1316C40.2785 19.8495 40.4658 19.4589 41.2634 19.1286C42.2497 18.72 43.5503 19.4445 43.7509 20.5143C43.8719 21.1591 42.1689 27.1618 41.5018 28.4424C40.2987 30.7516 38.0376 32.4936 35.5929 32.9946C34.0623 33.3081 18.7855 33.2582 17.4379 32.9351C14.7874 32.2997 12.443 30.3404 11.4158 27.9024C11.1469 27.2638 9.41433 21.1338 9.41433 20.8207C9.41433 19.5451 10.9439 18.6031 12.0699 19.1853ZM27.2539 21.6808C28.8152 22.1145 29.5381 24.0439 28.6379 25.3752C27.638 26.8538 25.6365 26.8918 24.6218 25.4512C23.3257 23.6113 25.0924 21.0807 27.2539 21.6808ZM45.0372 33.1795C39.9358 34.5159 37.4791 39.9984 39.8301 44.7995C41.6878 48.5933 46.5018 50.2478 50.5002 48.4665L51.2012 48.1542L53.5383 50.4718C56.5469 53.4552 57.2487 53.7525 58.4997 52.5736C59.7799 51.3672 59.4355 50.5485 56.3581 47.4806L54.1264 45.2559L54.4862 44.4626C57.2855 38.2886 51.5731 31.4674 45.0372 33.1795ZM48.8725 37.5223C52.7328 39.5193 51.4528 45.1038 47.135 45.1038C42.7311 45.1038 41.5708 39.0382 45.6645 37.4172C46.525 37.0765 48.1112 37.1284 48.8725 37.5223Z" fill="white"/>
</svg>
