<svg width="54" height="54" viewBox="0 0 54 54" fill="none" xmlns="http://www.w3.org/2000/svg">
<path fill-rule="evenodd" clip-rule="evenodd" d="M7.7259 0.321537C4.21023 1.02928 1.45262 3.97655 0.954398 7.55863C0.786923 8.76199 0.783733 41.7022 0.950918 42.9038C1.4197 46.2749 3.63777 48.878 7.00583 50.0099L7.79884 50.2764L16.4932 50.3106C21.2751 50.3294 25.1875 50.3162 25.1875 50.2813C25.1875 50.2463 25.0657 50.0249 24.917 49.7892C19.0368 40.4744 23.7143 27.6094 34.2927 24.0024C36.6578 23.196 40.6402 22.7818 41.7892 23.2227C41.9429 23.2817 41.9581 22.401 41.9291 15.1472L41.8965 7.00546L41.5414 6.01308C40.561 3.27301 38.4453 1.27042 35.622 0.410277C34.7587 0.147247 8.999 0.0653223 7.7259 0.321537ZM32.4559 11.3942C33.9203 12.255 33.8942 14.3378 32.4091 15.1313L31.9277 15.3883L21.64 15.4189C14.6394 15.4398 11.2092 15.4111 10.905 15.3292C9.25957 14.8862 8.74684 12.8462 9.985 11.6694C10.6772 11.0115 10.2807 11.0324 21.5625 11.0591L31.9277 11.0836L32.4559 11.3942ZM18.8752 23.1548C20.88 23.7116 20.963 26.7566 18.9882 27.3084C18.581 27.422 11.1807 27.4232 10.7745 27.3095C8.854 26.7722 8.83268 23.8813 10.7442 23.205C11.3077 23.0058 18.1852 22.9633 18.8752 23.1548ZM37.5618 27.6155C26.8845 29.6413 22.9557 42.761 30.7961 50.2087C38.0724 57.1205 50.2335 53.6372 52.7161 43.9303C55.0819 34.6802 46.8778 25.8479 37.5618 27.6155ZM40.8483 34.3591C41.7142 34.9525 41.779 35.1677 41.8186 37.5786L41.8541 39.7354L42.8023 40.7191C43.839 41.7944 44.0752 42.2948 43.9413 43.1322C43.7404 44.3881 42.4747 45.2272 41.2735 44.9008C40.6515 44.7317 38.1006 42.3101 37.7506 41.5564C37.4764 40.9661 37.4271 35.9708 37.6893 35.3505C38.1979 34.1467 39.8032 33.6431 40.8483 34.3591ZM16.8728 35.2918C18.6531 36.2668 18.4169 38.8072 16.4962 39.3405C15.9209 39.5003 11.4385 39.4949 10.8578 39.3337C8.87329 38.7826 8.80977 35.6372 10.7745 35.2043C10.9448 35.1668 11.135 35.1171 11.1973 35.0937C11.6058 34.9407 16.5467 35.1131 16.8728 35.2918Z" fill="white"/>
</svg>
