<svg width="54" height="40" viewBox="0 0 54 40" fill="none" xmlns="http://www.w3.org/2000/svg">
<path fill-rule="evenodd" clip-rule="evenodd" d="M25.3194 0.755458C18.7433 1.8489 15.185 9.53115 18.6131 15.2349C22.6641 21.9752 32.6261 21.4896 35.843 14.3949C39.0645 7.28988 33.0332 -0.527211 25.3194 0.755458ZM5.81643 5.68082C0.377333 7.13256 -1.46779 13.9792 2.5184 17.9191C5.96389 21.3246 11.8909 20.4476 14.1059 16.2046C17.0394 10.585 11.898 4.05754 5.81643 5.68082ZM44.3564 5.71286C36.084 8.15205 38.0414 20.2977 46.6544 19.9713C54.6259 19.6691 56.2799 8.6784 48.7775 5.86395C47.7303 5.47115 45.4416 5.39299 44.3564 5.71286ZM6.213 22.4869C3.7045 23.0311 1.70843 24.776 0.764773 27.2496L0.440553 28.0991L0.401548 32.6871C0.354423 38.224 0.421558 38.5359 1.79398 39.1594C2.24131 39.3626 5.70318 39.4889 5.70318 39.3021C5.70318 39.2643 5.62126 38.9202 5.52106 38.5374C4.53724 34.7784 6.65482 28.2222 10.1595 24.176L11.0064 23.1983L10.7054 23.0583C9.4813 22.4892 7.41418 22.2263 6.213 22.4869ZM22.1694 22.5565C15.7117 23.6412 10.8256 28.8844 10.1083 35.4993C9.89919 37.427 10.1503 38.2858 11.1231 38.9695L11.6134 39.314H27.0001H42.3867L42.878 38.9692C43.7225 38.3761 43.9384 37.8375 43.92 36.3688C43.8353 29.6152 38.5828 23.6608 31.7298 22.5494C30.3246 22.3214 23.5385 22.3265 22.1694 22.5565ZM45.1251 22.4495C44.6869 22.5345 44.1002 22.7241 43.5188 22.9692L42.9886 23.1925L43.838 24.1731C47.3414 28.2177 49.4642 34.7871 48.4796 38.5374C48.3792 38.9202 48.2969 39.2643 48.2969 39.3021C48.2969 39.4889 51.7588 39.3626 52.2061 39.1594C53.5791 38.5356 53.6461 38.224 53.5965 32.6871C53.5509 27.5852 53.5729 27.7462 52.6917 26.0885C51.3424 23.5506 47.9253 21.9073 45.1251 22.4495Z" fill="white"/>
</svg>
