<svg width="58" height="58" viewBox="0 0 58 58" fill="none" xmlns="http://www.w3.org/2000/svg">
<path fill-rule="evenodd" clip-rule="evenodd" d="M22.713 0.176713C5.09796 2.56602 -5.1444 21.4557 2.49362 37.4661C7.77626 48.539 19.9349 54.4608 31.9454 51.8105C33.5058 51.4661 33.4534 51.5068 33.2412 50.8039C32.9465 49.8279 32.7393 48.2462 32.7387 46.9709C32.7384 45.846 32.7215 45.7476 32.5401 45.8176C30.4099 46.6406 26.098 47.0114 23.3506 46.608C7.31458 44.2532 0.0558751 25.3336 10.445 12.9703C20.8158 0.628824 40.6688 4.45291 45.7542 19.7717C47.0882 23.7904 47.118 29.177 45.8244 32.5233C45.7623 32.6837 45.9581 32.7125 47.4874 32.7691C48.8097 32.8179 49.4761 32.8997 50.2969 33.1137C51.5654 33.4445 51.4569 33.5118 51.7588 32.2068C55.8976 14.3146 40.8463 -2.28307 22.713 0.176713ZM23.1661 9.13191C20.5032 9.60983 17.6605 10.8448 15.754 12.3518L15.1526 12.8272L16.8657 14.543L18.5789 16.2589L17.4157 17.4181L16.2525 18.5772L14.5599 16.8819C12.6013 14.9199 12.8515 14.9538 11.8161 16.5101C10.3309 18.7422 9.33776 21.3766 8.99759 23.987L8.92002 24.5817H11.3702H13.8204V26.2242V27.8669H11.3741L8.92799 27.8668L9.00325 28.4616C9.33704 31.0987 10.5179 34.0921 12.0815 36.2634C12.8871 37.3824 12.6794 37.444 14.6137 35.5129L16.2595 33.8701L17.3887 35.0035L18.518 36.1371L16.8344 37.8235C15.8916 38.7679 15.1842 39.5636 15.2265 39.6322C15.3761 39.8744 17.7001 41.3542 18.6108 41.7875C20.315 42.598 22.1236 43.1318 24.1573 43.4243L24.5821 43.4854V41.057V38.6285H26.2246H27.8673V41.0454V43.4621L28.5752 43.3696C29.7577 43.215 31.26 42.8221 32.4817 42.3479L33.6411 41.8978L34.0784 40.9713C34.3188 40.4616 34.8054 39.6138 35.1598 39.0874L35.8039 38.1303L34.8108 37.1326L33.8175 36.1347L34.9764 34.976L36.1351 33.8171L37.133 34.8104L38.1307 35.8035L39.0879 35.1594C39.6142 34.805 40.458 34.3203 40.9628 34.082L41.8807 33.6489L42.2252 32.8253C42.761 31.5444 43.1851 29.9683 43.3691 28.5748L43.4625 27.8669H41.0458H38.6289V26.2242V24.5817H41.0574H43.4858L43.4247 24.1569C43.1322 22.1232 42.5984 20.3146 41.7879 18.6104C41.3546 17.6997 39.8748 15.3758 39.6326 15.2261C39.564 15.1838 38.7683 15.8912 37.8239 16.834L36.1375 18.5176L35.0039 17.3883L33.8705 16.2591L35.5133 14.6133C37.4444 12.679 37.3828 12.8867 36.2638 12.0811C34.0925 10.5175 31.0991 9.33665 28.462 9.00286L27.8673 8.9276V11.3738V13.82H26.2246H24.5821V11.3845V8.94892L24.3271 8.95907C24.1871 8.96458 23.6645 9.04244 23.1661 9.13191ZM27.8673 21.4665V24.5817H29.7364H31.6056V26.2242V27.8669H28.0938H24.5821V23.109V18.3513H26.2246H27.8673V21.4665ZM45.0114 36.1906C36.2619 37.7784 32.9484 48.813 39.3806 54.9422C46.4685 61.696 57.9071 56.8421 57.9371 47.068C57.9587 40.0227 51.9161 34.9377 45.0114 36.1906ZM51.1169 44.3762L52.2241 45.4792L48.9109 48.7939L45.5976 52.1086L43.6996 50.2129L41.8015 48.3173L42.9599 47.155L44.1182 45.9926L44.8867 46.7552L45.655 47.5177L47.7774 45.3954C48.9447 44.2281 49.9244 43.2732 49.9547 43.2732C49.9849 43.2732 50.5079 43.7695 51.1169 44.3762Z" fill="white"/>
</svg>
